%FSLAX45Y45*%
G04 Gerber Fmt 4.5, Leading zero omitted, Abs format (unit mm)*
G04 Created by KiCad (PCBNEW (6.0.5-0)) date 2022-06-07 16:07:59*
%MOMM*%
%LPD*%
G01*
G04 APERTURE LIST*
%TA.AperFunction,Profile*%
%ADD10C,0.100000*%
%TD*%
%ADD11C,0.200000*%
G04 APERTURE END LIST*
D10*
X12192000Y-8890000D02*
X15240000Y-8890000D01*
X15240000Y-8890000D02*
X15240000Y-10668000D01*
X15240000Y-10668000D02*
X12192000Y-10668000D01*
X12192000Y-10668000D02*
X12192000Y-8890000D01*
D11*
X12444619Y-10983476D02*
X12444619Y-10783476D01*
X12492238Y-10783476D01*
X12520809Y-10793000D01*
X12539857Y-10812048D01*
X12549381Y-10831095D01*
X12558905Y-10869190D01*
X12558905Y-10897762D01*
X12549381Y-10935857D01*
X12539857Y-10954905D01*
X12520809Y-10973952D01*
X12492238Y-10983476D01*
X12444619Y-10983476D01*
X12644619Y-10983476D02*
X12644619Y-10850143D01*
X12644619Y-10888238D02*
X12654143Y-10869190D01*
X12663667Y-10859667D01*
X12682714Y-10850143D01*
X12701762Y-10850143D01*
X12768428Y-10983476D02*
X12768428Y-10850143D01*
X12768428Y-10783476D02*
X12758905Y-10793000D01*
X12768428Y-10802524D01*
X12777952Y-10793000D01*
X12768428Y-10783476D01*
X12768428Y-10802524D01*
X12892238Y-10983476D02*
X12873190Y-10973952D01*
X12863667Y-10954905D01*
X12863667Y-10783476D01*
X12997000Y-10983476D02*
X12977952Y-10973952D01*
X12968428Y-10954905D01*
X12968428Y-10783476D01*
X13225571Y-10983476D02*
X13225571Y-10783476D01*
X13292238Y-10926333D01*
X13358905Y-10783476D01*
X13358905Y-10983476D01*
X13539857Y-10983476D02*
X13539857Y-10878714D01*
X13530333Y-10859667D01*
X13511286Y-10850143D01*
X13473190Y-10850143D01*
X13454143Y-10859667D01*
X13539857Y-10973952D02*
X13520809Y-10983476D01*
X13473190Y-10983476D01*
X13454143Y-10973952D01*
X13444619Y-10954905D01*
X13444619Y-10935857D01*
X13454143Y-10916810D01*
X13473190Y-10907286D01*
X13520809Y-10907286D01*
X13539857Y-10897762D01*
X13635095Y-10850143D02*
X13635095Y-11050143D01*
X13635095Y-10859667D02*
X13654143Y-10850143D01*
X13692238Y-10850143D01*
X13711286Y-10859667D01*
X13720809Y-10869190D01*
X13730333Y-10888238D01*
X13730333Y-10945381D01*
X13720809Y-10964429D01*
X13711286Y-10973952D01*
X13692238Y-10983476D01*
X13654143Y-10983476D01*
X13635095Y-10973952D01*
X13816048Y-10964429D02*
X13825571Y-10973952D01*
X13816048Y-10983476D01*
X13806524Y-10973952D01*
X13816048Y-10964429D01*
X13816048Y-10983476D01*
X13816048Y-10859667D02*
X13825571Y-10869190D01*
X13816048Y-10878714D01*
X13806524Y-10869190D01*
X13816048Y-10859667D01*
X13816048Y-10878714D01*
M02*
